<svg width="512" height="512" viewBox="0 0 512 512" fill="none" xmlns="http://www.w3.org/2000/svg">
  <rect width="512" height="512" rx="128" fill="#009B49"/>
  <path d="M256 380V140C256 140 216 110 146 110C76 110 56 140 56 140V380C56 380 76 350 146 350C216 350 256 380 256 380Z" fill="#FFFFFF"/>
  <path d="M256 380V140C256 140 296 110 366 110C436 110 456 140 456 140V380C456 380 436 350 366 350C296 350 256 380 256 380Z" fill="#FA9704"/>
  <circle cx="256" cy="260" r="40" fill="#009B49" stroke="#FFFFFF" stroke-width="12"/>
</svg>
